<svg id="SvgjsSvg1006" width="769" height="870" xmlns="http://www.w3.org/2000/svg" version="1.1" xmlns:xlink="http://www.w3.org/1999/xlink" xmlns:svgjs="http://svgjs.com/svgjs"><defs id="SvgjsDefs1007"><marker id="SvgjsMarker1022" markerWidth="16" markerHeight="12" refX="16" refY="6" viewBox="0 0 16 12" orient="auto" markerUnits="userSpaceOnUse"><path id="SvgjsPath1023" d="M0,2 L14,6 L0,11 L0,2" fill="#323232" stroke="#323232" stroke-width="2"></path></marker><marker id="SvgjsMarker1026" markerWidth="16" markerHeight="12" refX="16" refY="6" viewBox="0 0 16 12" orient="auto" markerUnits="userSpaceOnUse"><path id="SvgjsPath1027" d="M0,2 L14,6 L0,11 L0,2" fill="#323232" stroke="#323232" stroke-width="2"></path></marker><marker id="SvgjsMarker1040" markerWidth="16" markerHeight="12" refX="16" refY="6" viewBox="0 0 16 12" orient="auto" markerUnits="userSpaceOnUse"><path id="SvgjsPath1041" d="M0,2 L14,6 L0,11 L0,2" fill="#323232" stroke="#323232" stroke-width="2"></path></marker><marker id="SvgjsMarker1054" markerWidth="16" markerHeight="12" refX="16" refY="6" viewBox="0 0 16 12" orient="auto" markerUnits="userSpaceOnUse"><path id="SvgjsPath1055" d="M0,2 L14,6 L0,11 L0,2" fill="#323232" stroke="#323232" stroke-width="2"></path></marker><marker id="SvgjsMarker1086" markerWidth="16" markerHeight="12" refX="16" refY="6" viewBox="0 0 16 12" orient="auto" markerUnits="userSpaceOnUse"><path id="SvgjsPath1087" d="M0,2 L14,6 L0,11 L0,2" fill="#323232" stroke="#323232" stroke-width="2"></path></marker><marker id="SvgjsMarker1094" markerWidth="16" markerHeight="12" refX="16" refY="6" viewBox="0 0 16 12" orient="auto" markerUnits="userSpaceOnUse"><path id="SvgjsPath1095" d="M0,2 L14,6 L0,11 L0,2" fill="#323232" stroke="#323232" stroke-width="2"></path></marker><marker id="SvgjsMarker1098" markerWidth="16" markerHeight="12" refX="16" refY="6" viewBox="0 0 16 12" orient="auto" markerUnits="userSpaceOnUse"><path id="SvgjsPath1099" d="M0,2 L14,6 L0,11 L0,2" fill="#323232" stroke="#323232" stroke-width="2"></path></marker><marker id="SvgjsMarker1106" markerWidth="16" markerHeight="12" refX="16" refY="6" viewBox="0 0 16 12" orient="auto" markerUnits="userSpaceOnUse"><path id="SvgjsPath1107" d="M0,2 L14,6 L0,11 L0,2" fill="#323232" stroke="#323232" stroke-width="2"></path></marker><marker id="SvgjsMarker1114" markerWidth="16" markerHeight="12" refX="16" refY="6" viewBox="0 0 16 12" orient="auto" markerUnits="userSpaceOnUse"><path id="SvgjsPath1115" d="M0,2 L14,6 L0,11 L0,2" fill="#323232" stroke="#323232" stroke-width="2"></path></marker><marker id="SvgjsMarker1122" markerWidth="16" markerHeight="12" refX="16" refY="6" viewBox="0 0 16 12" orient="auto" markerUnits="userSpaceOnUse"><path id="SvgjsPath1123" d="M0,2 L14,6 L0,11 L0,2" fill="#323232" stroke="#323232" stroke-width="2"></path></marker><marker id="SvgjsMarker1130" markerWidth="16" markerHeight="12" refX="16" refY="6" viewBox="0 0 16 12" orient="auto" markerUnits="userSpaceOnUse"><path id="SvgjsPath1131" d="M0,2 L14,6 L0,11 L0,2" fill="#323232" stroke="#323232" stroke-width="2"></path></marker><marker id="SvgjsMarker1138" markerWidth="16" markerHeight="12" refX="16" refY="6" viewBox="0 0 16 12" orient="auto" markerUnits="userSpaceOnUse"><path id="SvgjsPath1139" d="M0,2 L14,6 L0,11 L0,2" fill="#323232" stroke="#323232" stroke-width="2"></path></marker><marker id="SvgjsMarker1152" markerWidth="16" markerHeight="12" refX="16" refY="6" viewBox="0 0 16 12" orient="auto" markerUnits="userSpaceOnUse"><path id="SvgjsPath1153" d="M0,2 L14,6 L0,11 L0,2" fill="#323232" stroke="#323232" stroke-width="2"></path></marker><marker id="SvgjsMarker1166" markerWidth="16" markerHeight="12" refX="16" refY="6" viewBox="0 0 16 12" orient="auto" markerUnits="userSpaceOnUse"><path id="SvgjsPath1167" d="M0,2 L14,6 L0,11 L0,2" fill="#323232" stroke="#323232" stroke-width="2"></path></marker><marker id="SvgjsMarker1174" markerWidth="16" markerHeight="12" refX="16" refY="6" viewBox="0 0 16 12" orient="auto" markerUnits="userSpaceOnUse"><path id="SvgjsPath1175" d="M0,2 L14,6 L0,11 L0,2" fill="#323232" stroke="#323232" stroke-width="2"></path></marker><marker id="SvgjsMarker1194" markerWidth="16" markerHeight="12" refX="16" refY="6" viewBox="0 0 16 12" orient="auto" markerUnits="userSpaceOnUse"><path id="SvgjsPath1195" d="M0,2 L14,6 L0,11 L0,2" fill="#323232" stroke="#323232" stroke-width="2"></path></marker><marker id="SvgjsMarker1202" markerWidth="16" markerHeight="12" refX="16" refY="6" viewBox="0 0 16 12" orient="auto" markerUnits="userSpaceOnUse"><path id="SvgjsPath1203" d="M0,2 L14,6 L0,11 L0,2" fill="#323232" stroke="#323232" stroke-width="2"></path></marker><marker id="SvgjsMarker1216" markerWidth="16" markerHeight="12" refX="16" refY="6" viewBox="0 0 16 12" orient="auto" markerUnits="userSpaceOnUse"><path id="SvgjsPath1217" d="M0,2 L14,6 L0,11 L0,2" fill="#323232" stroke="#323232" stroke-width="2"></path></marker><marker id="SvgjsMarker1230" markerWidth="16" markerHeight="12" refX="16" refY="6" viewBox="0 0 16 12" orient="auto" markerUnits="userSpaceOnUse"><path id="SvgjsPath1231" d="M0,2 L14,6 L0,11 L0,2" fill="#323232" stroke="#323232" stroke-width="2"></path></marker><marker id="SvgjsMarker1238" markerWidth="16" markerHeight="12" refX="16" refY="6" viewBox="0 0 16 12" orient="auto" markerUnits="userSpaceOnUse"><path id="SvgjsPath1239" d="M0,2 L14,6 L0,11 L0,2" fill="#323232" stroke="#323232" stroke-width="2"></path></marker><marker id="SvgjsMarker1252" markerWidth="16" markerHeight="12" refX="16" refY="6" viewBox="0 0 16 12" orient="auto" markerUnits="userSpaceOnUse"><path id="SvgjsPath1253" d="M0,2 L14,6 L0,11 L0,2" fill="#323232" stroke="#323232" stroke-width="2"></path></marker><marker id="SvgjsMarker1260" markerWidth="16" markerHeight="12" refX="16" refY="6" viewBox="0 0 16 12" orient="auto" markerUnits="userSpaceOnUse"><path id="SvgjsPath1261" d="M0,2 L14,6 L0,11 L0,2" fill="#323232" stroke="#323232" stroke-width="2"></path></marker></defs><g id="SvgjsG1008" transform="translate(236,337)"><path id="SvgjsPath1009" d="M 0 18Q 0 0 18 0L 82 0Q 100 0 100 18L 100 52Q 100 70 82 70L 18 70Q 0 70 0 52L 0 18Z" stroke="#323232" stroke-width="2" fill-opacity="1" fill="#ffffff"></path><g id="SvgjsG1010"><text id="SvgjsText1011" font-family="微软雅黑" text-anchor="middle" font-size="13px" width="65" fill="#323232" font-weight="400" align="middle" anchor="middle" family="微软雅黑" size="13px" weight="400" font-style="" y="25.05" transform="rotate(0)"><tspan id="SvgjsTspan1012" dy="16" x="50"><tspan id="SvgjsTspan1013" style="text-decoration:;">用户个人页</tspan></tspan></text></g></g><g id="SvgjsG1014" transform="translate(172,428)"><path id="SvgjsPath1015" d="M 0 20C 0 -6.666666666666667 40 -6.666666666666667 40 20C 40 46.666666666666664 0 46.666666666666664 0 20Z" stroke="none" fill-opacity="1" fill="#323232"></path><g id="SvgjsG1016"><text id="SvgjsText1017" font-family="微软雅黑" text-anchor="middle" font-size="13px" width="52" fill="#323232" font-weight="400" align="middle" anchor="middle" family="微软雅黑" size="13px" weight="400" font-style="" y="45.05" transform="rotate(0)"><tspan id="SvgjsTspan1018" dy="16" x="20"><tspan id="SvgjsTspan1019" style="text-decoration:;">进入应用</tspan></tspan></text></g></g><g id="SvgjsG1020"><path id="SvgjsPath1021" d="M206.70186667064308 433.92836282905955L240.53553390593277 402.46446609406723" stroke="#323232" stroke-width="2" fill="none" marker-end="url(#SvgjsMarker1022)"></path></g><g id="SvgjsG1024"><path id="SvgjsPath1025" d="M311 337L440.9809734904587 245.56422128626173" stroke="#323232" stroke-width="2" fill="none" marker-end="url(#SvgjsMarker1026)"></path><rect id="SvgjsRect1028" width="65" height="16" x="343.49048674522936" y="283.28211064313086" fill="#ffffff"></rect><text id="SvgjsText1029" font-family="微软雅黑" text-anchor="middle" font-size="13px" width="65" fill="#323232" font-weight="400" align="top" anchor="middle" family="微软雅黑" size="13px" weight="400" font-style="" y="281.3321106431309" transform="rotate(0)"><tspan id="SvgjsTspan1030" dy="16" x="375.99048674522936"><tspan id="SvgjsTspan1031" style="text-decoration:;">底部导航栏</tspan></tspan></text></g><g id="SvgjsG1032" transform="translate(440,193)"><path id="SvgjsPath1033" d="M 0 18Q 0 0 18 0L 82 0Q 100 0 100 18L 100 52Q 100 70 82 70L 18 70Q 0 70 0 52L 0 18Z" stroke="#323232" stroke-width="2" fill-opacity="1" fill="#ffffff"></path><g id="SvgjsG1034"><text id="SvgjsText1035" font-family="微软雅黑" text-anchor="middle" font-size="13px" width="39" fill="#323232" font-weight="400" align="middle" anchor="middle" family="微软雅黑" size="13px" weight="400" font-style="" y="25.05" transform="rotate(0)"><tspan id="SvgjsTspan1036" dy="16" x="50"><tspan id="SvgjsTspan1037" style="text-decoration:;">排行榜</tspan></tspan></text></g></g><g id="SvgjsG1038"><path id="SvgjsPath1039" d="M286 337L286 263" stroke="#323232" stroke-width="2" fill="none" marker-end="url(#SvgjsMarker1040)"></path><rect id="SvgjsRect1042" width="65" height="16" x="253.5" y="292" fill="#ffffff"></rect><text id="SvgjsText1043" font-family="微软雅黑" text-anchor="middle" font-size="13px" width="65" fill="#323232" font-weight="400" align="top" anchor="middle" family="微软雅黑" size="13px" weight="400" font-style="" y="290.05" transform="rotate(0)"><tspan id="SvgjsTspan1044" dy="16" x="286"><tspan id="SvgjsTspan1045" style="text-decoration:;">底部导航栏</tspan></tspan></text></g><g id="SvgjsG1046" transform="translate(236,193)"><path id="SvgjsPath1047" d="M 0 18Q 0 0 18 0L 82 0Q 100 0 100 18L 100 52Q 100 70 82 70L 18 70Q 0 70 0 52L 0 18Z" stroke="#323232" stroke-width="2" fill-opacity="1" fill="#ffffff"></path><g id="SvgjsG1048"><text id="SvgjsText1049" font-family="微软雅黑" text-anchor="middle" font-size="13px" width="39" fill="#323232" font-weight="400" align="middle" anchor="middle" family="微软雅黑" size="13px" weight="400" font-style="" y="25.05" transform="rotate(0)"><tspan id="SvgjsTspan1050" dy="16" x="50"><tspan id="SvgjsTspan1051" style="text-decoration:;">群列表</tspan></tspan></text></g></g><g id="SvgjsG1052"><path id="SvgjsPath1053" d="M286 407L286 482" stroke="#323232" stroke-width="2" fill="none" marker-end="url(#SvgjsMarker1054)"></path><rect id="SvgjsRect1056" width="26" height="16" x="273" y="436.5" fill="#ffffff"></rect><text id="SvgjsText1057" font-family="微软雅黑" text-anchor="middle" font-size="13px" width="26" fill="#323232" font-weight="400" align="top" anchor="middle" family="微软雅黑" size="13px" weight="400" font-style="" y="434.55" transform="rotate(0)"><tspan id="SvgjsTspan1058" dy="16" x="286"><tspan id="SvgjsTspan1059" style="text-decoration:;">打卡</tspan></tspan></text></g><g id="SvgjsG1060" transform="translate(236,482)"><path id="SvgjsPath1061" d="M 0 18Q 0 0 18 0L 82 0Q 100 0 100 18L 100 52Q 100 70 82 70L 18 70Q 0 70 0 52L 0 18Z" stroke="#323232" stroke-width="2" fill-opacity="1" fill="#ffffff"></path><g id="SvgjsG1062"><text id="SvgjsText1063" font-family="微软雅黑" text-anchor="middle" font-size="13px" width="52" fill="#323232" font-weight="400" align="middle" anchor="middle" family="微软雅黑" size="13px" weight="400" font-style="" y="25.05" transform="rotate(0)"><tspan id="SvgjsTspan1064" dy="16" x="50"><tspan id="SvgjsTspan1065" style="text-decoration:;">打卡管理</tspan></tspan></text></g></g><g id="SvgjsG1066" transform="translate(236,623)"><path id="SvgjsPath1067" d="M 0 18Q 0 0 18 0L 82 0Q 100 0 100 18L 100 52Q 100 70 82 70L 18 70Q 0 70 0 52L 0 18Z" stroke="#323232" stroke-width="2" fill-opacity="1" fill="#ffffff"></path><g id="SvgjsG1068"><text id="SvgjsText1069" font-family="微软雅黑" text-anchor="middle" font-size="13px" width="39" fill="#323232" font-weight="400" align="middle" anchor="middle" family="微软雅黑" size="13px" weight="400" font-style="" y="25.05" transform="rotate(0)"><tspan id="SvgjsTspan1070" dy="16" x="50"><tspan id="SvgjsTspan1071" style="text-decoration:;">选择卷</tspan></tspan></text></g></g><g id="SvgjsG1072" transform="translate(236,775)"><path id="SvgjsPath1073" d="M 0 18Q 0 0 18 0L 82 0Q 100 0 100 18L 100 52Q 100 70 82 70L 18 70Q 0 70 0 52L 0 18Z" stroke="#323232" stroke-width="2" fill-opacity="1" fill="#ffffff"></path><g id="SvgjsG1074"><text id="SvgjsText1075" font-family="微软雅黑" text-anchor="middle" font-size="13px" width="39" fill="#323232" font-weight="400" align="middle" anchor="middle" family="微软雅黑" size="13px" weight="400" font-style="" y="25.05" transform="rotate(0)"><tspan id="SvgjsTspan1076" dy="16" x="50"><tspan id="SvgjsTspan1077" style="text-decoration:;">选择章</tspan></tspan></text></g></g><g id="SvgjsG1078" transform="translate(459,623)"><path id="SvgjsPath1079" d="M 0 18Q 0 0 18 0L 82 0Q 100 0 100 18L 100 52Q 100 70 82 70L 18 70Q 0 70 0 52L 0 18Z" stroke="#323232" stroke-width="2" fill-opacity="1" fill="#ffffff"></path><g id="SvgjsG1080"><text id="SvgjsText1081" font-family="微软雅黑" text-anchor="middle" font-size="13px" width="65" fill="#323232" font-weight="400" align="middle" anchor="middle" family="微软雅黑" size="13px" weight="400" font-style="" y="25.05" transform="rotate(0)"><tspan id="SvgjsTspan1082" dy="16" x="50"><tspan id="SvgjsTspan1083" style="text-decoration:;">待打卡列表</tspan></tspan></text></g></g><g id="SvgjsG1084"><path id="SvgjsPath1085" d="M286 552L286 623" stroke="#323232" stroke-width="2" fill="none" marker-end="url(#SvgjsMarker1086)"></path><rect id="SvgjsRect1088" width="52" height="16" x="260" y="579.5" fill="#ffffff"></rect><text id="SvgjsText1089" font-family="微软雅黑" text-anchor="middle" font-size="13px" width="52" fill="#323232" font-weight="400" align="top" anchor="middle" family="微软雅黑" size="13px" weight="400" font-style="" y="577.55" transform="rotate(0)"><tspan id="SvgjsTspan1090" dy="16" x="286"><tspan id="SvgjsTspan1091" style="text-decoration:;">今日打卡</tspan></tspan></text></g><g id="SvgjsG1092"><path id="SvgjsPath1093" d="M286 693L286 775" stroke="#323232" stroke-width="2" fill="none" marker-end="url(#SvgjsMarker1094)"></path></g><g id="SvgjsG1096"><path id="SvgjsPath1097" d="M335.0114159057248 642.261467228243L459.97336288664224 641.6100901992336" stroke="#323232" stroke-width="2" fill="none" marker-end="url(#SvgjsMarker1098)"></path><rect id="SvgjsRect1100" width="39" height="16" x="377.9923893961835" y="633.9357787137383" fill="#ffffff"></rect><text id="SvgjsText1101" font-family="微软雅黑" text-anchor="middle" font-size="13px" width="39" fill="#323232" font-weight="400" align="top" anchor="middle" family="微软雅黑" size="13px" weight="400" font-style="" y="631.9857787137382" transform="rotate(0)"><tspan id="SvgjsTspan1102" dy="16" x="397.4923893961835"><tspan id="SvgjsTspan1103" style="text-decoration:;">悬浮球</tspan></tspan></text></g><g id="SvgjsG1104"><path id="SvgjsPath1105" d="M459 673L336 673" stroke="#323232" stroke-width="2" fill="none" marker-end="url(#SvgjsMarker1106)"></path><rect id="SvgjsRect1108" width="26" height="16" x="384.5" y="665" fill="#ffffff"></rect><text id="SvgjsText1109" font-family="微软雅黑" text-anchor="middle" font-size="13px" width="26" fill="#323232" font-weight="400" align="top" anchor="middle" family="微软雅黑" size="13px" weight="400" font-style="" y="663.05" transform="rotate(0)"><tspan id="SvgjsTspan1110" dy="16" x="397.5"><tspan id="SvgjsTspan1111" style="text-decoration:;">取消</tspan></tspan></text></g><g id="SvgjsG1112"><path id="SvgjsPath1113" d="M336 797L489 693" stroke="#323232" stroke-width="2" fill="none" marker-end="url(#SvgjsMarker1114)"></path><rect id="SvgjsRect1116" width="39" height="16" x="393" y="737" fill="#ffffff"></rect><text id="SvgjsText1117" font-family="微软雅黑" text-anchor="middle" font-size="13px" width="39" fill="#323232" font-weight="400" align="top" anchor="middle" family="微软雅黑" size="13px" weight="400" font-style="" y="735.05" transform="rotate(0)"><tspan id="SvgjsTspan1118" dy="16" x="412.5"><tspan id="SvgjsTspan1119" style="text-decoration:;">悬浮球</tspan></tspan></text></g><g id="SvgjsG1120"><path id="SvgjsPath1121" d="M528 693L335.0076106038165 825.8256885145047" stroke="#323232" stroke-width="2" fill="none" marker-end="url(#SvgjsMarker1122)"></path><rect id="SvgjsRect1124" width="26" height="16" x="418.50380530190824" y="751.4128442572523" fill="#ffffff"></rect><text id="SvgjsText1125" font-family="微软雅黑" text-anchor="middle" font-size="13px" width="26" fill="#323232" font-weight="400" align="top" anchor="middle" family="微软雅黑" size="13px" weight="400" font-style="" y="749.4628442572523" transform="rotate(0)"><tspan id="SvgjsTspan1126" dy="16" x="431.50380530190824"><tspan id="SvgjsTspan1127" style="text-decoration:;">取消</tspan></tspan></text></g><g id="SvgjsG1128"><path id="SvgjsPath1129" d="M509 623L329.7144247806269 403.46791111376206" stroke="#323232" stroke-width="2" fill="none" marker-end="url(#SvgjsMarker1130)"></path><rect id="SvgjsRect1132" width="26" height="16" x="406.35721239031346" y="505.233955556881" fill="#ffffff"></rect><text id="SvgjsText1133" font-family="微软雅黑" text-anchor="middle" font-size="13px" width="26" fill="#323232" font-weight="400" align="top" anchor="middle" family="微软雅黑" size="13px" weight="400" font-style="" y="503.28395555688104" transform="rotate(0)"><tspan id="SvgjsTspan1134" dy="16" x="419.35721239031346"><tspan id="SvgjsTspan1135" style="text-decoration:;">确认</tspan></tspan></text></g><g id="SvgjsG1136"><path id="SvgjsPath1137" d="M240.0641777724759 546.4288495612539L120.75735931288074 628.2426406871193" stroke="#323232" stroke-width="2" fill="none" marker-end="url(#SvgjsMarker1138)"></path><rect id="SvgjsRect1140" width="52" height="16" x="154.4107685426783" y="579.3357451241866" fill="#ffffff"></rect><text id="SvgjsText1141" font-family="微软雅黑" text-anchor="middle" font-size="13px" width="52" fill="#323232" font-weight="400" align="top" anchor="middle" family="微软雅黑" size="13px" weight="400" font-style="" y="577.3857451241865" transform="rotate(0)"><tspan id="SvgjsTspan1142" dy="16" x="180.4107685426783"><tspan id="SvgjsTspan1143" style="text-decoration:;">打卡记录</tspan></tspan></text></g><g id="SvgjsG1144" transform="translate(25,623)"><path id="SvgjsPath1145" d="M 0 18Q 0 0 18 0L 82 0Q 100 0 100 18L 100 52Q 100 70 82 70L 18 70Q 0 70 0 52L 0 18Z" stroke="#323232" stroke-width="2" fill-opacity="1" fill="#ffffff"></path><g id="SvgjsG1146"><text id="SvgjsText1147" font-family="微软雅黑" text-anchor="middle" font-size="13px" width="78" fill="#323232" font-weight="400" align="middle" anchor="middle" family="微软雅黑" size="13px" weight="400" font-style="" y="25.05" transform="rotate(0)"><tspan id="SvgjsTspan1148" dy="16" x="50"><tspan id="SvgjsTspan1149" style="text-decoration:;">每日打卡记录</tspan></tspan></text></g></g><g id="SvgjsG1150"><path id="SvgjsPath1151" d="M236 372L125 372" stroke="#323232" stroke-width="2" fill="none" marker-end="url(#SvgjsMarker1152)"></path><rect id="SvgjsRect1154" width="26" height="16" x="167.5" y="364" fill="#ffffff"></rect><text id="SvgjsText1155" font-family="微软雅黑" text-anchor="middle" font-size="13px" width="26" fill="#323232" font-weight="400" align="top" anchor="middle" family="微软雅黑" size="13px" weight="400" font-style="" y="362.05" transform="rotate(0)"><tspan id="SvgjsTspan1156" dy="16" x="180.5"><tspan id="SvgjsTspan1157" style="text-decoration:;">设置</tspan></tspan></text></g><g id="SvgjsG1158" transform="translate(25,337)"><path id="SvgjsPath1159" d="M 0 18Q 0 0 18 0L 82 0Q 100 0 100 18L 100 52Q 100 70 82 70L 18 70Q 0 70 0 52L 0 18Z" stroke="#323232" stroke-width="2" fill-opacity="1" fill="#ffffff"></path><g id="SvgjsG1160"><text id="SvgjsText1161" font-family="微软雅黑" text-anchor="middle" font-size="13px" width="39" fill="#323232" font-weight="400" align="middle" anchor="middle" family="微软雅黑" size="13px" weight="400" font-style="" y="25.05" transform="rotate(0)"><tspan id="SvgjsTspan1162" dy="16" x="50"><tspan id="SvgjsTspan1163" style="text-decoration:;">设置页</tspan></tspan></text></g></g><g id="SvgjsG1164"><path id="SvgjsPath1165" d="M470 263L336 361" stroke="#323232" stroke-width="2" fill="none" marker-end="url(#SvgjsMarker1166)"></path><rect id="SvgjsRect1168" width="52" height="16" x="377" y="304" fill="#ffffff"></rect><text id="SvgjsText1169" font-family="微软雅黑" text-anchor="middle" font-size="13px" width="52" fill="#323232" font-weight="400" align="top" anchor="middle" family="微软雅黑" size="13px" weight="400" font-style="" y="302.05" transform="rotate(0)"><tspan id="SvgjsTspan1170" dy="16" x="403"><tspan id="SvgjsTspan1171" style="text-decoration:;">点击用户</tspan></tspan></text></g><g id="SvgjsG1172"><path id="SvgjsPath1173" d="M336 228L440 228" stroke="#323232" stroke-width="2" fill="none" marker-end="url(#SvgjsMarker1174)"></path><rect id="SvgjsRect1176" width="39" height="16" x="368.5" y="220" fill="#ffffff"></rect><text id="SvgjsText1177" font-family="微软雅黑" text-anchor="middle" font-size="13px" width="39" fill="#323232" font-weight="400" align="top" anchor="middle" family="微软雅黑" size="13px" weight="400" font-style="" y="218.05" transform="rotate(0)"><tspan id="SvgjsTspan1178" dy="16" x="388"><tspan id="SvgjsTspan1179" style="text-decoration:;">点击群</tspan></tspan></text></g><g id="SvgjsG1180" transform="translate(644,193)"><path id="SvgjsPath1181" d="M 0 18Q 0 0 18 0L 82 0Q 100 0 100 18L 100 52Q 100 70 82 70L 18 70Q 0 70 0 52L 0 18Z" stroke="#323232" stroke-width="2" fill-opacity="1" fill="#ffffff"></path><g id="SvgjsG1182"><text id="SvgjsText1183" font-family="微软雅黑" text-anchor="middle" font-size="13px" width="39" fill="#323232" font-weight="400" align="middle" anchor="middle" family="微软雅黑" size="13px" weight="400" font-style="" y="25.05" transform="rotate(0)"><tspan id="SvgjsTspan1184" dy="16" x="50"><tspan id="SvgjsTspan1185" style="text-decoration:;">群设置</tspan></tspan></text></g></g><g id="SvgjsG1186" transform="translate(236,25)"><path id="SvgjsPath1187" d="M 0 18Q 0 0 18 0L 82 0Q 100 0 100 18L 100 52Q 100 70 82 70L 18 70Q 0 70 0 52L 0 18Z" stroke="#323232" stroke-width="2" fill-opacity="1" fill="#ffffff"></path><g id="SvgjsG1188"><text id="SvgjsText1189" font-family="微软雅黑" text-anchor="middle" font-size="13px" width="39" fill="#323232" font-weight="400" align="middle" anchor="middle" family="微软雅黑" size="13px" weight="400" font-style="" y="25.05" transform="rotate(0)"><tspan id="SvgjsTspan1190" dy="16" x="50"><tspan id="SvgjsTspan1191" style="text-decoration:;">新建群</tspan></tspan></text></g></g><g id="SvgjsG1192"><path id="SvgjsPath1193" d="M286 193L286 95" stroke="#323232" stroke-width="2" fill="none" marker-end="url(#SvgjsMarker1194)"></path><rect id="SvgjsRect1196" width="26" height="16" x="273" y="136" fill="#ffffff"></rect><text id="SvgjsText1197" font-family="微软雅黑" text-anchor="middle" font-size="13px" width="26" fill="#323232" font-weight="400" align="top" anchor="middle" family="微软雅黑" size="13px" weight="400" font-style="" y="134.05" transform="rotate(0)"><tspan id="SvgjsTspan1198" dy="16" x="286"><tspan id="SvgjsTspan1199" style="text-decoration:;">新建</tspan></tspan></text></g><g id="SvgjsG1200"><path id="SvgjsPath1201" d="M336 60L647.095760221445 199.86788218175525" stroke="#323232" stroke-width="2" fill="none" marker-end="url(#SvgjsMarker1202)"></path><rect id="SvgjsRect1204" width="52" height="16" x="465.5478801107225" y="121.93394109087762" fill="#ffffff"></rect><text id="SvgjsText1205" font-family="微软雅黑" text-anchor="middle" font-size="13px" width="52" fill="#323232" font-weight="400" align="top" anchor="middle" family="微软雅黑" size="13px" weight="400" font-style="" y="119.98394109087762" transform="rotate(0)"><tspan id="SvgjsTspan1206" dy="16" x="491.5478801107225"><tspan id="SvgjsTspan1207" style="text-decoration:;">创建成功</tspan></tspan></text></g><g id="SvgjsG1208" transform="translate(644,337)"><path id="SvgjsPath1209" d="M 0 18Q 0 0 18 0L 82 0Q 100 0 100 18L 100 52Q 100 70 82 70L 18 70Q 0 70 0 52L 0 18Z" stroke="#323232" stroke-width="2" fill-opacity="1" fill="#ffffff"></path><g id="SvgjsG1210"><text id="SvgjsText1211" font-family="微软雅黑" text-anchor="middle" font-size="13px" width="52" fill="#323232" font-weight="400" align="middle" anchor="middle" family="微软雅黑" size="13px" weight="400" font-style="" y="25.05" transform="rotate(0)"><tspan id="SvgjsTspan1212" dy="16" x="50"><tspan id="SvgjsTspan1213" style="text-decoration:;">删除成员</tspan></tspan></text></g></g><g id="SvgjsG1214"><path id="SvgjsPath1215" d="M694 263L694 337" stroke="#323232" stroke-width="2" fill="none" marker-end="url(#SvgjsMarker1216)"></path><rect id="SvgjsRect1218" width="43" height="16" x="672.5" y="292" fill="#ffffff"></rect><text id="SvgjsText1219" font-family="微软雅黑" text-anchor="middle" font-size="13px" width="43" fill="#323232" font-weight="400" align="top" anchor="middle" family="微软雅黑" size="13px" weight="400" font-style="" y="290.05" transform="rotate(0)"><tspan id="SvgjsTspan1220" dy="16" x="694"><tspan id="SvgjsTspan1221" style="text-decoration:;">点击-号</tspan></tspan></text></g><g id="SvgjsG1222" transform="translate(644,25)"><path id="SvgjsPath1223" d="M 0 18Q 0 0 18 0L 82 0Q 100 0 100 18L 100 52Q 100 70 82 70L 18 70Q 0 70 0 52L 0 18Z" stroke="#323232" stroke-width="2" fill-opacity="1" fill="#ffffff"></path><g id="SvgjsG1224"><text id="SvgjsText1225" font-family="微软雅黑" text-anchor="middle" font-size="13px" width="52" fill="#323232" font-weight="400" align="middle" anchor="middle" family="微软雅黑" size="13px" weight="400" font-style="" y="25.05" transform="rotate(0)"><tspan id="SvgjsTspan1226" dy="16" x="50"><tspan id="SvgjsTspan1227" style="text-decoration:;">群邀请页</tspan></tspan></text></g></g><g id="SvgjsG1228"><path id="SvgjsPath1229" d="M694 193L694 95" stroke="#323232" stroke-width="2" fill="none" marker-end="url(#SvgjsMarker1230)"></path><rect id="SvgjsRect1232" width="46" height="16" x="671" y="136" fill="#ffffff"></rect><text id="SvgjsText1233" font-family="微软雅黑" text-anchor="middle" font-size="13px" width="46" fill="#323232" font-weight="400" align="top" anchor="middle" family="微软雅黑" size="13px" weight="400" font-style="" y="134.05" transform="rotate(0)"><tspan id="SvgjsTspan1234" dy="16" x="694"><tspan id="SvgjsTspan1235" style="text-decoration:;">点击+号</tspan></tspan></text></g><g id="SvgjsG1236"><path id="SvgjsPath1237" d="M236 228L125 228" stroke="#323232" stroke-width="2" fill="none" marker-end="url(#SvgjsMarker1238)"></path><rect id="SvgjsRect1240" width="26" height="16" x="167.5" y="220" fill="#ffffff"></rect><text id="SvgjsText1241" font-family="微软雅黑" text-anchor="middle" font-size="13px" width="26" fill="#323232" font-weight="400" align="top" anchor="middle" family="微软雅黑" size="13px" weight="400" font-style="" y="218.05" transform="rotate(0)"><tspan id="SvgjsTspan1242" dy="16" x="180.5"><tspan id="SvgjsTspan1243" style="text-decoration:;">消息</tspan></tspan></text></g><g id="SvgjsG1244" transform="translate(25,193)"><path id="SvgjsPath1245" d="M 0 18Q 0 0 18 0L 82 0Q 100 0 100 18L 100 52Q 100 70 82 70L 18 70Q 0 70 0 52L 0 18Z" stroke="#323232" stroke-width="2" fill-opacity="1" fill="#ffffff"></path><g id="SvgjsG1246"><text id="SvgjsText1247" font-family="微软雅黑" text-anchor="middle" font-size="13px" width="52" fill="#323232" font-weight="400" align="middle" anchor="middle" family="微软雅黑" size="13px" weight="400" font-style="" y="25.05" transform="rotate(0)"><tspan id="SvgjsTspan1248" dy="16" x="50"><tspan id="SvgjsTspan1249" style="text-decoration:;">消息列表</tspan></tspan></text></g></g><g id="SvgjsG1250"><path id="SvgjsPath1251" d="M648.9283628290597 258.7018666706431L336 386" stroke="#323232" stroke-width="2" fill="none" marker-end="url(#SvgjsMarker1252)"></path><rect id="SvgjsRect1254" width="78" height="16" x="453.46418141452983" y="314.35093333532154" fill="#ffffff"></rect><text id="SvgjsText1255" font-family="微软雅黑" text-anchor="middle" font-size="13px" width="78" fill="#323232" font-weight="400" align="top" anchor="middle" family="微软雅黑" size="13px" weight="400" font-style="" y="312.40093333532155" transform="rotate(0)"><tspan id="SvgjsTspan1256" dy="16" x="492.46418141452983"><tspan id="SvgjsTspan1257" style="text-decoration:;">点击成员头像</tspan></tspan></text></g><g id="SvgjsG1258"><path id="SvgjsPath1259" d="M540 228L644 228" stroke="#323232" stroke-width="2" fill="none" marker-end="url(#SvgjsMarker1260)"></path></g><g id="SvgjsG1262" transform="translate(440,25)"><path id="SvgjsPath1263" d="M 0 18Q 0 0 18 0L 82 0Q 100 0 100 18L 100 52Q 100 70 82 70L 18 70Q 0 70 0 52L 0 18Z" stroke="#323232" stroke-width="2" fill-opacity="1" fill="#ffffff"></path><g id="SvgjsG1264"><text id="SvgjsText1265" font-family="微软雅黑" text-anchor="middle" font-size="13px" width="78" fill="#323232" font-weight="400" align="middle" anchor="middle" family="微软雅黑" size="13px" weight="400" font-style="" y="25.05" transform="rotate(0)"><tspan id="SvgjsTspan1266" dy="16" x="50"><tspan id="SvgjsTspan1267" style="text-decoration:;">群邀请确认页</tspan></tspan></text></g></g><g id="SvgjsG1268"><path id="SvgjsPath1269" d="M540 60L644 60" stroke-dasharray="8,5" stroke="#323232" stroke-width="2" fill="none"></path></g></svg>