<svg id="SvgjsSvg1006" width="769" height="870" xmlns="http://www.w3.org/2000/svg" version="1.1" xmlns:xlink="http://www.w3.org/1999/xlink" xmlns:svgjs="http://svgjs.com/svgjs"><defs id="SvgjsDefs1007"><marker id="SvgjsMarker1022" markerWidth="16" markerHeight="12" refX="16" refY="6" viewBox="0 0 16 12" orient="auto" markerUnits="userSpaceOnUse"><path id="SvgjsPath1023" d="M0,2 L14,6 L0,11 L0,2" fill="#323232" stroke="#323232" stroke-width="2"></path></marker><marker id="SvgjsMarker1032" markerWidth="16" markerHeight="12" refX="16" refY="6" viewBox="0 0 16 12" orient="auto" markerUnits="userSpaceOnUse"><path id="SvgjsPath1033" d="M0,2 L14,6 L0,11 L0,2" fill="#323232" stroke="#323232" stroke-width="2"></path></marker><marker id="SvgjsMarker1046" markerWidth="16" markerHeight="12" refX="16" refY="6" viewBox="0 0 16 12" orient="auto" markerUnits="userSpaceOnUse"><path id="SvgjsPath1047" d="M0,2 L14,6 L0,11 L0,2" fill="#323232" stroke="#323232" stroke-width="2"></path></marker><marker id="SvgjsMarker1078" markerWidth="16" markerHeight="12" refX="16" refY="6" viewBox="0 0 16 12" orient="auto" markerUnits="userSpaceOnUse"><path id="SvgjsPath1079" d="M0,2 L14,6 L0,11 L0,2" fill="#323232" stroke="#323232" stroke-width="2"></path></marker><marker id="SvgjsMarker1086" markerWidth="16" markerHeight="12" refX="16" refY="6" viewBox="0 0 16 12" orient="auto" markerUnits="userSpaceOnUse"><path id="SvgjsPath1087" d="M0,2 L14,6 L0,11 L0,2" fill="#323232" stroke="#323232" stroke-width="2"></path></marker><marker id="SvgjsMarker1090" markerWidth="16" markerHeight="12" refX="16" refY="6" viewBox="0 0 16 12" orient="auto" markerUnits="userSpaceOnUse"><path id="SvgjsPath1091" d="M0,2 L14,6 L0,11 L0,2" fill="#323232" stroke="#323232" stroke-width="2"></path></marker><marker id="SvgjsMarker1098" markerWidth="16" markerHeight="12" refX="16" refY="6" viewBox="0 0 16 12" orient="auto" markerUnits="userSpaceOnUse"><path id="SvgjsPath1099" d="M0,2 L14,6 L0,11 L0,2" fill="#323232" stroke="#323232" stroke-width="2"></path></marker><marker id="SvgjsMarker1106" markerWidth="16" markerHeight="12" refX="16" refY="6" viewBox="0 0 16 12" orient="auto" markerUnits="userSpaceOnUse"><path id="SvgjsPath1107" d="M0,2 L14,6 L0,11 L0,2" fill="#323232" stroke="#323232" stroke-width="2"></path></marker><marker id="SvgjsMarker1114" markerWidth="16" markerHeight="12" refX="16" refY="6" viewBox="0 0 16 12" orient="auto" markerUnits="userSpaceOnUse"><path id="SvgjsPath1115" d="M0,2 L14,6 L0,11 L0,2" fill="#323232" stroke="#323232" stroke-width="2"></path></marker><marker id="SvgjsMarker1122" markerWidth="16" markerHeight="12" refX="16" refY="6" viewBox="0 0 16 12" orient="auto" markerUnits="userSpaceOnUse"><path id="SvgjsPath1123" d="M0,2 L14,6 L0,11 L0,2" fill="#323232" stroke="#323232" stroke-width="2"></path></marker><marker id="SvgjsMarker1130" markerWidth="16" markerHeight="12" refX="16" refY="6" viewBox="0 0 16 12" orient="auto" markerUnits="userSpaceOnUse"><path id="SvgjsPath1131" d="M0,2 L14,6 L0,11 L0,2" fill="#323232" stroke="#323232" stroke-width="2"></path></marker><marker id="SvgjsMarker1144" markerWidth="16" markerHeight="12" refX="16" refY="6" viewBox="0 0 16 12" orient="auto" markerUnits="userSpaceOnUse"><path id="SvgjsPath1145" d="M0,2 L14,6 L0,11 L0,2" fill="#323232" stroke="#323232" stroke-width="2"></path></marker><marker id="SvgjsMarker1170" markerWidth="16" markerHeight="12" refX="16" refY="6" viewBox="0 0 16 12" orient="auto" markerUnits="userSpaceOnUse"><path id="SvgjsPath1171" d="M0,2 L14,6 L0,11 L0,2" fill="#323232" stroke="#323232" stroke-width="2"></path></marker><marker id="SvgjsMarker1178" markerWidth="16" markerHeight="12" refX="16" refY="6" viewBox="0 0 16 12" orient="auto" markerUnits="userSpaceOnUse"><path id="SvgjsPath1179" d="M0,2 L14,6 L0,11 L0,2" fill="#323232" stroke="#323232" stroke-width="2"></path></marker><marker id="SvgjsMarker1192" markerWidth="16" markerHeight="12" refX="16" refY="6" viewBox="0 0 16 12" orient="auto" markerUnits="userSpaceOnUse"><path id="SvgjsPath1193" d="M0,2 L14,6 L0,11 L0,2" fill="#323232" stroke="#323232" stroke-width="2"></path></marker><marker id="SvgjsMarker1206" markerWidth="16" markerHeight="12" refX="16" refY="6" viewBox="0 0 16 12" orient="auto" markerUnits="userSpaceOnUse"><path id="SvgjsPath1207" d="M0,2 L14,6 L0,11 L0,2" fill="#323232" stroke="#323232" stroke-width="2"></path></marker><marker id="SvgjsMarker1214" markerWidth="16" markerHeight="12" refX="16" refY="6" viewBox="0 0 16 12" orient="auto" markerUnits="userSpaceOnUse"><path id="SvgjsPath1215" d="M0,2 L14,6 L0,11 L0,2" fill="#323232" stroke="#323232" stroke-width="2"></path></marker><marker id="SvgjsMarker1228" markerWidth="16" markerHeight="12" refX="16" refY="6" viewBox="0 0 16 12" orient="auto" markerUnits="userSpaceOnUse"><path id="SvgjsPath1229" d="M0,2 L14,6 L0,11 L0,2" fill="#323232" stroke="#323232" stroke-width="2"></path></marker><marker id="SvgjsMarker1244" markerWidth="16" markerHeight="12" refX="16" refY="6" viewBox="0 0 16 12" orient="auto" markerUnits="userSpaceOnUse"><path id="SvgjsPath1245" d="M0,2 L14,6 L0,11 L0,2" fill="#323232" stroke="#323232" stroke-width="2"></path></marker><marker id="SvgjsMarker1252" markerWidth="16" markerHeight="12" refX="16" refY="6" viewBox="0 0 16 12" orient="auto" markerUnits="userSpaceOnUse"><path id="SvgjsPath1253" d="M0,2 L14,6 L0,11 L0,2" fill="#323232" stroke="#323232" stroke-width="2"></path></marker><marker id="SvgjsMarker1256" markerWidth="16" markerHeight="12" refX="16" refY="6" viewBox="0 0 16 12" orient="auto" markerUnits="userSpaceOnUse"><path id="SvgjsPath1257" d="M0,2 L14,6 L0,11 L0,2" fill="#323232" stroke="#323232" stroke-width="2"></path></marker><marker id="SvgjsMarker1264" markerWidth="16" markerHeight="12" refX="16" refY="6" viewBox="0 0 16 12" orient="auto" markerUnits="userSpaceOnUse"><path id="SvgjsPath1265" d="M0,2 L14,6 L0,11 L0,2" fill="#323232" stroke="#323232" stroke-width="2"></path></marker></defs><g id="SvgjsG1008" transform="translate(236,337)"><path id="SvgjsPath1009" d="M 0 18Q 0 0 18 0L 82 0Q 100 0 100 18L 100 52Q 100 70 82 70L 18 70Q 0 70 0 52L 0 18Z" stroke="#323232" stroke-width="2" fill-opacity="1" fill="#ffffff"></path><g id="SvgjsG1010"><text id="SvgjsText1011" font-family="微软雅黑" text-anchor="middle" font-size="13px" width="65" fill="#323232" font-weight="400" align="middle" anchor="middle" family="微软雅黑" size="13px" weight="400" font-style="" y="25.05" transform="rotate(0)"><tspan id="SvgjsTspan1012" dy="16" x="50"><tspan id="SvgjsTspan1013" style="text-decoration:;">用户个人页</tspan></tspan></text></g></g><g id="SvgjsG1014" transform="translate(172,428)"><path id="SvgjsPath1015" d="M 0 20C 0 -6.666666666666667 40 -6.666666666666667 40 20C 40 46.666666666666664 0 46.666666666666664 0 20Z" stroke="none" fill-opacity="1" fill="#323232"></path><g id="SvgjsG1016"><text id="SvgjsText1017" font-family="微软雅黑" text-anchor="middle" font-size="13px" width="52" fill="#323232" font-weight="400" align="middle" anchor="middle" family="微软雅黑" size="13px" weight="400" font-style="" y="45.05" transform="rotate(0)"><tspan id="SvgjsTspan1018" dy="16" x="20"><tspan id="SvgjsTspan1019" style="text-decoration:;">进入应用</tspan></tspan></text></g></g><g id="SvgjsG1020"><path id="SvgjsPath1021" d="M206.70186667064308 433.92836282905955L240.53553390593277 402.46446609406723" stroke="#323232" stroke-width="2" fill="none" marker-end="url(#SvgjsMarker1022)"></path></g><g id="SvgjsG1024" transform="translate(440,337)"><path id="SvgjsPath1025" d="M 0 18Q 0 0 18 0L 82 0Q 100 0 100 18L 100 52Q 100 70 82 70L 18 70Q 0 70 0 52L 0 18Z" stroke="#323232" stroke-width="2" fill-opacity="1" fill="#ffffff"></path><g id="SvgjsG1026"><text id="SvgjsText1027" font-family="微软雅黑" text-anchor="middle" font-size="13px" width="39" fill="#323232" font-weight="400" align="middle" anchor="middle" family="微软雅黑" size="13px" weight="400" font-style="" y="25.05" transform="rotate(0)"><tspan id="SvgjsTspan1028" dy="16" x="50"><tspan id="SvgjsTspan1029" style="text-decoration:;">排行榜</tspan></tspan></text></g></g><g id="SvgjsG1030"><path id="SvgjsPath1031" d="M286 337L286 263" stroke="#323232" stroke-width="2" fill="none" marker-end="url(#SvgjsMarker1032)"></path><rect id="SvgjsRect1034" width="65" height="16" x="253.5" y="292" fill="#ffffff"></rect><text id="SvgjsText1035" font-family="微软雅黑" text-anchor="middle" font-size="13px" width="65" fill="#323232" font-weight="400" align="top" anchor="middle" family="微软雅黑" size="13px" weight="400" font-style="" y="290.05" transform="rotate(0)"><tspan id="SvgjsTspan1036" dy="16" x="286"><tspan id="SvgjsTspan1037" style="text-decoration:;">底部导航栏</tspan></tspan></text></g><g id="SvgjsG1038" transform="translate(236,193)"><path id="SvgjsPath1039" d="M 0 18Q 0 0 18 0L 82 0Q 100 0 100 18L 100 52Q 100 70 82 70L 18 70Q 0 70 0 52L 0 18Z" stroke="#323232" stroke-width="2" fill-opacity="1" fill="#ffffff"></path><g id="SvgjsG1040"><text id="SvgjsText1041" font-family="微软雅黑" text-anchor="middle" font-size="13px" width="39" fill="#323232" font-weight="400" align="middle" anchor="middle" family="微软雅黑" size="13px" weight="400" font-style="" y="25.05" transform="rotate(0)"><tspan id="SvgjsTspan1042" dy="16" x="50"><tspan id="SvgjsTspan1043" style="text-decoration:;">群列表</tspan></tspan></text></g></g><g id="SvgjsG1044"><path id="SvgjsPath1045" d="M286 407L286 482" stroke="#323232" stroke-width="2" fill="none" marker-end="url(#SvgjsMarker1046)"></path><rect id="SvgjsRect1048" width="26" height="16" x="273" y="436.5" fill="#ffffff"></rect><text id="SvgjsText1049" font-family="微软雅黑" text-anchor="middle" font-size="13px" width="26" fill="#323232" font-weight="400" align="top" anchor="middle" family="微软雅黑" size="13px" weight="400" font-style="" y="434.55" transform="rotate(0)"><tspan id="SvgjsTspan1050" dy="16" x="286"><tspan id="SvgjsTspan1051" style="text-decoration:;">打卡</tspan></tspan></text></g><g id="SvgjsG1052" transform="translate(236,482)"><path id="SvgjsPath1053" d="M 0 18Q 0 0 18 0L 82 0Q 100 0 100 18L 100 52Q 100 70 82 70L 18 70Q 0 70 0 52L 0 18Z" stroke="#323232" stroke-width="2" fill-opacity="1" fill="#ffffff"></path><g id="SvgjsG1054"><text id="SvgjsText1055" font-family="微软雅黑" text-anchor="middle" font-size="13px" width="52" fill="#323232" font-weight="400" align="middle" anchor="middle" family="微软雅黑" size="13px" weight="400" font-style="" y="25.05" transform="rotate(0)"><tspan id="SvgjsTspan1056" dy="16" x="50"><tspan id="SvgjsTspan1057" style="text-decoration:;">打卡管理</tspan></tspan></text></g></g><g id="SvgjsG1058" transform="translate(236,623)"><path id="SvgjsPath1059" d="M 0 18Q 0 0 18 0L 82 0Q 100 0 100 18L 100 52Q 100 70 82 70L 18 70Q 0 70 0 52L 0 18Z" stroke="#323232" stroke-width="2" fill-opacity="1" fill="#ffffff"></path><g id="SvgjsG1060"><text id="SvgjsText1061" font-family="微软雅黑" text-anchor="middle" font-size="13px" width="39" fill="#323232" font-weight="400" align="middle" anchor="middle" family="微软雅黑" size="13px" weight="400" font-style="" y="25.05" transform="rotate(0)"><tspan id="SvgjsTspan1062" dy="16" x="50"><tspan id="SvgjsTspan1063" style="text-decoration:;">选择卷</tspan></tspan></text></g></g><g id="SvgjsG1064" transform="translate(236,775)"><path id="SvgjsPath1065" d="M 0 18Q 0 0 18 0L 82 0Q 100 0 100 18L 100 52Q 100 70 82 70L 18 70Q 0 70 0 52L 0 18Z" stroke="#323232" stroke-width="2" fill-opacity="1" fill="#ffffff"></path><g id="SvgjsG1066"><text id="SvgjsText1067" font-family="微软雅黑" text-anchor="middle" font-size="13px" width="39" fill="#323232" font-weight="400" align="middle" anchor="middle" family="微软雅黑" size="13px" weight="400" font-style="" y="25.05" transform="rotate(0)"><tspan id="SvgjsTspan1068" dy="16" x="50"><tspan id="SvgjsTspan1069" style="text-decoration:;">选择章</tspan></tspan></text></g></g><g id="SvgjsG1070" transform="translate(459,623)"><path id="SvgjsPath1071" d="M 0 18Q 0 0 18 0L 82 0Q 100 0 100 18L 100 52Q 100 70 82 70L 18 70Q 0 70 0 52L 0 18Z" stroke="#323232" stroke-width="2" fill-opacity="1" fill="#ffffff"></path><g id="SvgjsG1072"><text id="SvgjsText1073" font-family="微软雅黑" text-anchor="middle" font-size="13px" width="65" fill="#323232" font-weight="400" align="middle" anchor="middle" family="微软雅黑" size="13px" weight="400" font-style="" y="25.05" transform="rotate(0)"><tspan id="SvgjsTspan1074" dy="16" x="50"><tspan id="SvgjsTspan1075" style="text-decoration:;">待打卡列表</tspan></tspan></text></g></g><g id="SvgjsG1076"><path id="SvgjsPath1077" d="M286 552L286 623" stroke="#323232" stroke-width="2" fill="none" marker-end="url(#SvgjsMarker1078)"></path><rect id="SvgjsRect1080" width="52" height="16" x="260" y="579.5" fill="#ffffff"></rect><text id="SvgjsText1081" font-family="微软雅黑" text-anchor="middle" font-size="13px" width="52" fill="#323232" font-weight="400" align="top" anchor="middle" family="微软雅黑" size="13px" weight="400" font-style="" y="577.55" transform="rotate(0)"><tspan id="SvgjsTspan1082" dy="16" x="286"><tspan id="SvgjsTspan1083" style="text-decoration:;">今日打卡</tspan></tspan></text></g><g id="SvgjsG1084"><path id="SvgjsPath1085" d="M286 693L286 775" stroke="#323232" stroke-width="2" fill="none" marker-end="url(#SvgjsMarker1086)"></path></g><g id="SvgjsG1088"><path id="SvgjsPath1089" d="M335.0114159057248 642.261467228243L459.97336288664224 641.6100901992336" stroke="#323232" stroke-width="2" fill="none" marker-end="url(#SvgjsMarker1090)"></path><rect id="SvgjsRect1092" width="39" height="16" x="377.9923893961835" y="633.9357787137383" fill="#ffffff"></rect><text id="SvgjsText1093" font-family="微软雅黑" text-anchor="middle" font-size="13px" width="39" fill="#323232" font-weight="400" align="top" anchor="middle" family="微软雅黑" size="13px" weight="400" font-style="" y="631.9857787137382" transform="rotate(0)"><tspan id="SvgjsTspan1094" dy="16" x="397.4923893961835"><tspan id="SvgjsTspan1095" style="text-decoration:;">悬浮球</tspan></tspan></text></g><g id="SvgjsG1096"><path id="SvgjsPath1097" d="M459 673L336 673" stroke="#323232" stroke-width="2" fill="none" marker-end="url(#SvgjsMarker1098)"></path><rect id="SvgjsRect1100" width="26" height="16" x="384.5" y="665" fill="#ffffff"></rect><text id="SvgjsText1101" font-family="微软雅黑" text-anchor="middle" font-size="13px" width="26" fill="#323232" font-weight="400" align="top" anchor="middle" family="微软雅黑" size="13px" weight="400" font-style="" y="663.05" transform="rotate(0)"><tspan id="SvgjsTspan1102" dy="16" x="397.5"><tspan id="SvgjsTspan1103" style="text-decoration:;">取消</tspan></tspan></text></g><g id="SvgjsG1104"><path id="SvgjsPath1105" d="M336 797L489 693" stroke="#323232" stroke-width="2" fill="none" marker-end="url(#SvgjsMarker1106)"></path><rect id="SvgjsRect1108" width="39" height="16" x="393" y="737" fill="#ffffff"></rect><text id="SvgjsText1109" font-family="微软雅黑" text-anchor="middle" font-size="13px" width="39" fill="#323232" font-weight="400" align="top" anchor="middle" family="微软雅黑" size="13px" weight="400" font-style="" y="735.05" transform="rotate(0)"><tspan id="SvgjsTspan1110" dy="16" x="412.5"><tspan id="SvgjsTspan1111" style="text-decoration:;">悬浮球</tspan></tspan></text></g><g id="SvgjsG1112"><path id="SvgjsPath1113" d="M528 693L335.0076106038165 825.8256885145047" stroke="#323232" stroke-width="2" fill="none" marker-end="url(#SvgjsMarker1114)"></path><rect id="SvgjsRect1116" width="26" height="16" x="418.50380530190824" y="751.4128442572523" fill="#ffffff"></rect><text id="SvgjsText1117" font-family="微软雅黑" text-anchor="middle" font-size="13px" width="26" fill="#323232" font-weight="400" align="top" anchor="middle" family="微软雅黑" size="13px" weight="400" font-style="" y="749.4628442572523" transform="rotate(0)"><tspan id="SvgjsTspan1118" dy="16" x="431.50380530190824"><tspan id="SvgjsTspan1119" style="text-decoration:;">取消</tspan></tspan></text></g><g id="SvgjsG1120"><path id="SvgjsPath1121" d="M509 623L329.7144247806269 403.46791111376206" stroke="#323232" stroke-width="2" fill="none" marker-end="url(#SvgjsMarker1122)"></path><rect id="SvgjsRect1124" width="26" height="16" x="406.35721239031346" y="505.233955556881" fill="#ffffff"></rect><text id="SvgjsText1125" font-family="微软雅黑" text-anchor="middle" font-size="13px" width="26" fill="#323232" font-weight="400" align="top" anchor="middle" family="微软雅黑" size="13px" weight="400" font-style="" y="503.28395555688104" transform="rotate(0)"><tspan id="SvgjsTspan1126" dy="16" x="419.35721239031346"><tspan id="SvgjsTspan1127" style="text-decoration:;">确认</tspan></tspan></text></g><g id="SvgjsG1128"><path id="SvgjsPath1129" d="M240.0641777724759 546.4288495612539L120.75735931288074 628.2426406871193" stroke="#323232" stroke-width="2" fill="none" marker-end="url(#SvgjsMarker1130)"></path><rect id="SvgjsRect1132" width="52" height="16" x="154.4107685426783" y="579.3357451241866" fill="#ffffff"></rect><text id="SvgjsText1133" font-family="微软雅黑" text-anchor="middle" font-size="13px" width="52" fill="#323232" font-weight="400" align="top" anchor="middle" family="微软雅黑" size="13px" weight="400" font-style="" y="577.3857451241865" transform="rotate(0)"><tspan id="SvgjsTspan1134" dy="16" x="180.4107685426783"><tspan id="SvgjsTspan1135" style="text-decoration:;">打卡记录</tspan></tspan></text></g><g id="SvgjsG1136" transform="translate(25,623)"><path id="SvgjsPath1137" d="M 0 18Q 0 0 18 0L 82 0Q 100 0 100 18L 100 52Q 100 70 82 70L 18 70Q 0 70 0 52L 0 18Z" stroke="#323232" stroke-width="2" fill-opacity="1" fill="#ffffff"></path><g id="SvgjsG1138"><text id="SvgjsText1139" font-family="微软雅黑" text-anchor="middle" font-size="13px" width="78" fill="#323232" font-weight="400" align="middle" anchor="middle" family="微软雅黑" size="13px" weight="400" font-style="" y="25.05" transform="rotate(0)"><tspan id="SvgjsTspan1140" dy="16" x="50"><tspan id="SvgjsTspan1141" style="text-decoration:;">每日打卡记录</tspan></tspan></text></g></g><g id="SvgjsG1142"><path id="SvgjsPath1143" d="M236 372L125 372" stroke="#323232" stroke-width="2" fill="none" marker-end="url(#SvgjsMarker1144)"></path><rect id="SvgjsRect1146" width="26" height="16" x="167.5" y="364" fill="#ffffff"></rect><text id="SvgjsText1147" font-family="微软雅黑" text-anchor="middle" font-size="13px" width="26" fill="#323232" font-weight="400" align="top" anchor="middle" family="微软雅黑" size="13px" weight="400" font-style="" y="362.05" transform="rotate(0)"><tspan id="SvgjsTspan1148" dy="16" x="180.5"><tspan id="SvgjsTspan1149" style="text-decoration:;">设置</tspan></tspan></text></g><g id="SvgjsG1150" transform="translate(25,337)"><path id="SvgjsPath1151" d="M 0 18Q 0 0 18 0L 82 0Q 100 0 100 18L 100 52Q 100 70 82 70L 18 70Q 0 70 0 52L 0 18Z" stroke="#323232" stroke-width="2" fill-opacity="1" fill="#ffffff"></path><g id="SvgjsG1152"><text id="SvgjsText1153" font-family="微软雅黑" text-anchor="middle" font-size="13px" width="39" fill="#323232" font-weight="400" align="middle" anchor="middle" family="微软雅黑" size="13px" weight="400" font-style="" y="25.05" transform="rotate(0)"><tspan id="SvgjsTspan1154" dy="16" x="50"><tspan id="SvgjsTspan1155" style="text-decoration:;">设置页</tspan></tspan></text></g></g><g id="SvgjsG1156" transform="translate(440,193)"><path id="SvgjsPath1157" d="M 0 18Q 0 0 18 0L 82 0Q 100 0 100 18L 100 52Q 100 70 82 70L 18 70Q 0 70 0 52L 0 18Z" stroke="#323232" stroke-width="2" fill-opacity="1" fill="#ffffff"></path><g id="SvgjsG1158"><text id="SvgjsText1159" font-family="微软雅黑" text-anchor="middle" font-size="13px" width="39" fill="#323232" font-weight="400" align="middle" anchor="middle" family="微软雅黑" size="13px" weight="400" font-style="" y="25.05" transform="rotate(0)"><tspan id="SvgjsTspan1160" dy="16" x="50"><tspan id="SvgjsTspan1161" style="text-decoration:;">群设置</tspan></tspan></text></g></g><g id="SvgjsG1162" transform="translate(236,25)"><path id="SvgjsPath1163" d="M 0 18Q 0 0 18 0L 82 0Q 100 0 100 18L 100 52Q 100 70 82 70L 18 70Q 0 70 0 52L 0 18Z" stroke="#323232" stroke-width="2" fill-opacity="1" fill="#ffffff"></path><g id="SvgjsG1164"><text id="SvgjsText1165" font-family="微软雅黑" text-anchor="middle" font-size="13px" width="39" fill="#323232" font-weight="400" align="middle" anchor="middle" family="微软雅黑" size="13px" weight="400" font-style="" y="25.05" transform="rotate(0)"><tspan id="SvgjsTspan1166" dy="16" x="50"><tspan id="SvgjsTspan1167" style="text-decoration:;">新建群</tspan></tspan></text></g></g><g id="SvgjsG1168"><path id="SvgjsPath1169" d="M286 193L286 95" stroke="#323232" stroke-width="2" fill="none" marker-end="url(#SvgjsMarker1170)"></path><rect id="SvgjsRect1172" width="26" height="16" x="273" y="136" fill="#ffffff"></rect><text id="SvgjsText1173" font-family="微软雅黑" text-anchor="middle" font-size="13px" width="26" fill="#323232" font-weight="400" align="top" anchor="middle" family="微软雅黑" size="13px" weight="400" font-style="" y="134.05" transform="rotate(0)"><tspan id="SvgjsTspan1174" dy="16" x="286"><tspan id="SvgjsTspan1175" style="text-decoration:;">新建</tspan></tspan></text></g><g id="SvgjsG1176"><path id="SvgjsPath1177" d="M336 60L443.09576022144495 199.86788218175525" stroke="#323232" stroke-width="2" fill="none" marker-end="url(#SvgjsMarker1178)"></path><rect id="SvgjsRect1180" width="52" height="16" x="363.5478801107225" y="121.93394109087762" fill="#ffffff"></rect><text id="SvgjsText1181" font-family="微软雅黑" text-anchor="middle" font-size="13px" width="52" fill="#323232" font-weight="400" align="top" anchor="middle" family="微软雅黑" size="13px" weight="400" font-style="" y="119.98394109087762" transform="rotate(0)"><tspan id="SvgjsTspan1182" dy="16" x="389.5478801107225"><tspan id="SvgjsTspan1183" style="text-decoration:;">创建成功</tspan></tspan></text></g><g id="SvgjsG1184" transform="translate(644,193)"><path id="SvgjsPath1185" d="M 0 18Q 0 0 18 0L 82 0Q 100 0 100 18L 100 52Q 100 70 82 70L 18 70Q 0 70 0 52L 0 18Z" stroke="#323232" stroke-width="2" fill-opacity="1" fill="#ffffff"></path><g id="SvgjsG1186"><text id="SvgjsText1187" font-family="微软雅黑" text-anchor="middle" font-size="13px" width="52" fill="#323232" font-weight="400" align="middle" anchor="middle" family="微软雅黑" size="13px" weight="400" font-style="" y="25.05" transform="rotate(0)"><tspan id="SvgjsTspan1188" dy="16" x="50"><tspan id="SvgjsTspan1189" style="text-decoration:;">删除成员</tspan></tspan></text></g></g><g id="SvgjsG1190"><path id="SvgjsPath1191" d="M540 228L644 228" stroke="#323232" stroke-width="2" fill="none" marker-end="url(#SvgjsMarker1192)"></path><rect id="SvgjsRect1194" width="43" height="16" x="570.5" y="220" fill="#ffffff"></rect><text id="SvgjsText1195" font-family="微软雅黑" text-anchor="middle" font-size="13px" width="43" fill="#323232" font-weight="400" align="top" anchor="middle" family="微软雅黑" size="13px" weight="400" font-style="" y="218.05" transform="rotate(0)"><tspan id="SvgjsTspan1196" dy="16" x="592"><tspan id="SvgjsTspan1197" style="text-decoration:;">点击-号</tspan></tspan></text></g><g id="SvgjsG1198" transform="translate(440,25)"><path id="SvgjsPath1199" d="M 0 18Q 0 0 18 0L 82 0Q 100 0 100 18L 100 52Q 100 70 82 70L 18 70Q 0 70 0 52L 0 18Z" stroke="#323232" stroke-width="2" fill-opacity="1" fill="#ffffff"></path><g id="SvgjsG1200"><text id="SvgjsText1201" font-family="微软雅黑" text-anchor="middle" font-size="13px" width="52" fill="#323232" font-weight="400" align="middle" anchor="middle" family="微软雅黑" size="13px" weight="400" font-style="" y="25.05" transform="rotate(0)"><tspan id="SvgjsTspan1202" dy="16" x="50"><tspan id="SvgjsTspan1203" style="text-decoration:;">群邀请页</tspan></tspan></text></g></g><g id="SvgjsG1204"><path id="SvgjsPath1205" d="M490 193L490 95" stroke="#323232" stroke-width="2" fill="none" marker-end="url(#SvgjsMarker1206)"></path><rect id="SvgjsRect1208" width="46" height="16" x="467" y="136" fill="#ffffff"></rect><text id="SvgjsText1209" font-family="微软雅黑" text-anchor="middle" font-size="13px" width="46" fill="#323232" font-weight="400" align="top" anchor="middle" family="微软雅黑" size="13px" weight="400" font-style="" y="134.05" transform="rotate(0)"><tspan id="SvgjsTspan1210" dy="16" x="490"><tspan id="SvgjsTspan1211" style="text-decoration:;">点击+号</tspan></tspan></text></g><g id="SvgjsG1212"><path id="SvgjsPath1213" d="M236 228L125 228" stroke="#323232" stroke-width="2" fill="none" marker-end="url(#SvgjsMarker1214)"></path><rect id="SvgjsRect1216" width="26" height="16" x="167.5" y="220" fill="#ffffff"></rect><text id="SvgjsText1217" font-family="微软雅黑" text-anchor="middle" font-size="13px" width="26" fill="#323232" font-weight="400" align="top" anchor="middle" family="微软雅黑" size="13px" weight="400" font-style="" y="218.05" transform="rotate(0)"><tspan id="SvgjsTspan1218" dy="16" x="180.5"><tspan id="SvgjsTspan1219" style="text-decoration:;">消息</tspan></tspan></text></g><g id="SvgjsG1220" transform="translate(25,193)"><path id="SvgjsPath1221" d="M 0 18Q 0 0 18 0L 82 0Q 100 0 100 18L 100 52Q 100 70 82 70L 18 70Q 0 70 0 52L 0 18Z" stroke="#323232" stroke-width="2" fill-opacity="1" fill="#ffffff"></path><g id="SvgjsG1222"><text id="SvgjsText1223" font-family="微软雅黑" text-anchor="middle" font-size="13px" width="52" fill="#323232" font-weight="400" align="middle" anchor="middle" family="微软雅黑" size="13px" weight="400" font-style="" y="25.05" transform="rotate(0)"><tspan id="SvgjsTspan1224" dy="16" x="50"><tspan id="SvgjsTspan1225" style="text-decoration:;">消息列表</tspan></tspan></text></g></g><g id="SvgjsG1226"><path id="SvgjsPath1227" d="M444.92836282905967 258.7018666706431L332.72339182284406 343.2943057454042" stroke="#323232" stroke-width="2" fill="none" marker-end="url(#SvgjsMarker1228)"></path><rect id="SvgjsRect1230" width="78" height="16" x="349.82587732595186" y="292.99808620802366" fill="#ffffff"></rect><text id="SvgjsText1231" font-family="微软雅黑" text-anchor="middle" font-size="13px" width="78" fill="#323232" font-weight="400" align="top" anchor="middle" family="微软雅黑" size="13px" weight="400" font-style="" y="291.0480862080237" transform="rotate(0)"><tspan id="SvgjsTspan1232" dy="16" x="388.82587732595186"><tspan id="SvgjsTspan1233" style="text-decoration:;">点击成员头像</tspan></tspan></text></g><g id="SvgjsG1234" transform="translate(644,25)"><path id="SvgjsPath1235" d="M 0 18Q 0 0 18 0L 82 0Q 100 0 100 18L 100 52Q 100 70 82 70L 18 70Q 0 70 0 52L 0 18Z" stroke="#323232" stroke-width="2" fill-opacity="1" fill="#ffffff"></path><g id="SvgjsG1236"><text id="SvgjsText1237" font-family="微软雅黑" text-anchor="middle" font-size="13px" width="78" fill="#323232" font-weight="400" align="middle" anchor="middle" family="微软雅黑" size="13px" weight="400" font-style="" y="25.05" transform="rotate(0)"><tspan id="SvgjsTspan1238" dy="16" x="50"><tspan id="SvgjsTspan1239" style="text-decoration:;">群邀请确认页</tspan></tspan></text></g></g><g id="SvgjsG1240"><path id="SvgjsPath1241" d="M644 60L540 60" stroke-dasharray="8,5" stroke="#323232" stroke-width="2" fill="none"></path></g><g id="SvgjsG1242"><path id="SvgjsPath1243" d="M336 228L388 228L388 228L440 228" stroke="#323232" stroke-width="2" fill="none" marker-end="url(#SvgjsMarker1244)"></path><rect id="SvgjsRect1246" width="39" height="16" x="368.5" y="220" fill="#ffffff"></rect><text id="SvgjsText1247" font-family="微软雅黑" text-anchor="middle" font-size="13px" width="39" fill="#323232" font-weight="400" align="top" anchor="middle" family="微软雅黑" size="13px" weight="400" font-style="" y="218.05" transform="rotate(0)"><tspan id="SvgjsTspan1248" dy="16" x="388"><tspan id="SvgjsTspan1249" style="text-decoration:;">点击群</tspan></tspan></text></g><g id="SvgjsG1250"><path id="SvgjsPath1251" d="M490 263L490 300L490 300L490 337" stroke="#323232" stroke-width="2" fill="none" marker-end="url(#SvgjsMarker1252)"></path></g><g id="SvgjsG1254"><path id="SvgjsPath1255" d="M336 356L388 356L388 356L440 356" stroke="#323232" stroke-width="2" fill="none" marker-end="url(#SvgjsMarker1256)"></path><rect id="SvgjsRect1258" width="39" height="16" x="368.5" y="348" fill="#ffffff"></rect><text id="SvgjsText1259" font-family="微软雅黑" text-anchor="middle" font-size="13px" width="39" fill="#323232" font-weight="400" align="top" anchor="middle" family="微软雅黑" size="13px" weight="400" font-style="" y="346.05" transform="rotate(0)"><tspan id="SvgjsTspan1260" dy="16" x="388"><tspan id="SvgjsTspan1261" style="text-decoration:;">导航栏</tspan></tspan></text></g><g id="SvgjsG1262"><path id="SvgjsPath1263" d="M440.9885840942752 388.73853277175704L388.4942920471376 388.73853277175704L388.4942920471376 389L336 389" stroke="#323232" stroke-width="2" fill="none" marker-end="url(#SvgjsMarker1264)"></path><rect id="SvgjsRect1266" width="52" height="16" x="362.4942920471376" y="380.8692663858785" fill="#ffffff"></rect><text id="SvgjsText1267" font-family="微软雅黑" text-anchor="middle" font-size="13px" width="52" fill="#323232" font-weight="400" align="top" anchor="middle" family="微软雅黑" size="13px" weight="400" font-style="" y="378.91926638587853" transform="rotate(0)"><tspan id="SvgjsTspan1268" dy="16" x="388.4942920471376"><tspan id="SvgjsTspan1269" style="text-decoration:;">点击用户</tspan></tspan></text></g></svg>